<svg width="166" height="36" viewBox="0 0 166 36" fill="none" xmlns="http://www.w3.org/2000/svg">
<path d="M52.3674 18.2501V17.8339C52.3674 16.7885 52.0124 15.9884 51.3041 15.4337C50.6154 14.8576 49.7131 14.5697 48.5955 14.5697C47.7342 14.5697 47.0571 14.7189 46.564 15.0177C46.0907 15.295 45.6387 15.7218 45.2097 16.2979C45.0799 16.4685 44.9402 16.5858 44.7906 16.6499C44.6394 16.7139 44.4356 16.7459 44.1776 16.7459H43.2095C42.9728 16.7459 42.7592 16.6606 42.5652 16.4898C42.3926 16.3192 42.317 16.1164 42.3384 15.8817C42.4041 15.2417 42.7148 14.6122 43.2736 13.9936C43.8554 13.3534 44.618 12.8308 45.5631 12.4253C46.5098 12.02 47.5206 11.8174 48.5955 11.8174C50.594 11.8174 52.2064 12.3721 53.4325 13.4815C54.6783 14.591 55.3028 16.1485 55.3028 18.1541V27.9152C55.3028 28.1498 55.2157 28.3526 55.0448 28.5232C54.8722 28.694 54.6684 28.7793 54.4318 28.7793H53.2385C53.0019 28.7793 52.7981 28.694 52.6255 28.5232C52.4529 28.3526 52.3674 28.1498 52.3674 27.9152V26.603C52.0239 27.3711 51.2926 27.9792 50.1749 28.4272C49.0573 28.8753 47.9397 29.0993 46.8221 29.0993C45.7258 29.0993 44.7462 28.9073 43.8866 28.5232C43.0271 28.1179 42.3614 27.5737 41.8881 26.891C41.4361 26.2082 41.2109 25.4402 41.2109 24.5869C41.2109 22.9865 41.8125 21.7384 43.0156 20.8423C44.2203 19.9249 45.8211 19.3063 47.8213 18.9861L52.3674 18.2501ZM52.3674 20.8103L48.5626 21.4184C47.1656 21.6317 46.0792 21.9838 45.3051 22.4746C44.5326 22.944 44.1447 23.5414 44.1447 24.2667C44.1447 24.8002 44.3929 25.2801 44.8859 25.7069C45.3807 26.1336 46.1334 26.347 47.1442 26.347C48.6908 26.347 49.9498 25.9096 50.9162 25.0349C51.8842 24.16 52.3674 23.0186 52.3674 21.6104V20.8103Z" fill="white"/>
<path d="M62.9405 27.9152C62.9405 28.1498 62.8551 28.3526 62.6825 28.5232C62.5116 28.6939 62.3061 28.7792 62.0711 28.7792H60.8779C60.6412 28.7792 60.4374 28.6939 60.2648 28.5232C60.0923 28.3526 60.0068 28.1498 60.0068 27.9152V6.92066C60.0068 6.68596 60.0923 6.48331 60.2648 6.31271C60.4374 6.14194 60.6412 6.05664 60.8779 6.05664H62.0711C62.3061 6.05664 62.5116 6.14194 62.6825 6.31271C62.8551 6.48331 62.9405 6.68596 62.9405 6.92066V27.9152Z" fill="white"/>
<path d="M74.5574 26.347C76.7055 26.347 78.1568 25.5148 78.9095 23.8507C79.0607 23.5307 79.2103 23.3067 79.3615 23.1787C79.5111 23.0506 79.7165 22.9865 79.9746 22.9865H80.941C81.1776 22.9865 81.3814 23.072 81.554 23.2426C81.7266 23.392 81.8121 23.5733 81.8121 23.7866C81.8121 24.5121 81.5211 25.2908 80.941 26.1229C80.3608 26.9551 79.5226 27.6592 78.4263 28.2352C77.3301 28.8113 76.0399 29.0993 74.5574 29.0993C73.0305 29.0993 71.7074 28.7793 70.5898 28.1393C69.4722 27.4991 68.6126 26.6244 68.0111 25.5148C67.4095 24.384 67.0759 23.1252 67.0118 21.7384C66.9888 21.4825 66.9789 20.9917 66.9789 20.2663C66.9789 19.7543 66.9888 19.3916 67.0118 19.1782C67.2041 17.002 67.947 15.231 69.2355 13.8656C70.5257 12.5001 72.2991 11.8174 74.5574 11.8174C76.0399 11.8174 77.3186 12.1053 78.3935 12.6814C79.4897 13.2361 80.3181 13.9295 80.8769 14.7616C81.457 15.5724 81.7693 16.3404 81.8121 17.0659C81.8334 17.3006 81.748 17.5033 81.554 17.674C81.3814 17.8446 81.1776 17.9301 80.941 17.9301H79.9746C79.7165 17.9301 79.5111 17.866 79.3615 17.738C79.2103 17.6099 79.0607 17.3859 78.9095 17.0659C78.1568 15.4018 76.7055 14.5697 74.5574 14.5697C73.374 14.5697 72.3419 14.9643 71.4609 15.7537C70.58 16.5433 70.0737 17.738 69.9455 19.3381C69.9242 19.5728 69.9127 19.9569 69.9127 20.4903C69.9127 20.981 69.9242 21.3438 69.9455 21.5785C70.0951 23.1787 70.6013 24.3734 71.4609 25.1628C72.3419 25.9523 73.374 26.347 74.5574 26.347Z" fill="white"/>
<path d="M100.568 27.9152C100.568 28.1498 100.483 28.3526 100.31 28.5232C100.139 28.6939 99.9356 28.7792 99.6989 28.7792H98.5057C98.269 28.7792 98.0652 28.6939 97.8927 28.5232C97.7201 28.3526 97.6346 28.1498 97.6346 27.9152V19.4662C97.6346 17.866 97.2369 16.6499 96.4414 15.8178C95.6459 14.9856 94.5381 14.5696 93.1197 14.5696C91.7227 14.5696 90.615 14.9856 89.7981 15.8178C89.0026 16.6499 88.6065 17.866 88.6065 19.4662V27.9152C88.6065 28.1498 88.5194 28.3526 88.3485 28.5232C88.1759 28.6939 87.9721 28.7792 87.7354 28.7792H86.5422C86.3055 28.7792 86.1017 28.6939 85.9291 28.5232C85.7566 28.3526 85.6711 28.1498 85.6711 27.9152V6.92066C85.6711 6.68596 85.7566 6.48331 85.9291 6.31271C86.1017 6.14194 86.3055 6.05664 86.5422 6.05664H87.7354C87.9721 6.05664 88.1759 6.14194 88.3485 6.31271C88.5194 6.48331 88.6065 6.68596 88.6065 6.92066V13.9936C89.0782 13.3748 89.7241 12.8628 90.541 12.4573C91.3792 12.0307 92.3998 11.8173 93.6046 11.8173C94.9589 11.8173 96.162 12.1053 97.2155 12.6814C98.269 13.2574 99.0859 14.0896 99.6661 15.1776C100.268 16.2444 100.568 17.5139 100.568 18.9861V27.9152Z" fill="white"/>
<path d="M111.868 11.8174C114.169 11.8174 115.985 12.5427 117.318 13.9936C118.651 15.4444 119.318 17.418 119.318 19.9142V20.7784C119.318 21.0131 119.231 21.2157 119.06 21.3863C118.888 21.5571 118.684 21.6424 118.447 21.6424H107.355V21.8344C107.397 23.2426 107.826 24.3522 108.645 25.1628C109.483 25.9523 110.558 26.347 111.868 26.347C112.943 26.347 113.771 26.2082 114.351 25.931C114.953 25.6535 115.49 25.2589 115.964 24.7468C116.136 24.5762 116.286 24.4588 116.416 24.3947C116.565 24.3308 116.759 24.2987 116.996 24.2987H117.964C118.222 24.2987 118.436 24.384 118.608 24.5548C118.781 24.7254 118.855 24.9282 118.833 25.1628C118.748 25.7388 118.426 26.3363 117.867 26.9551C117.329 27.5525 116.544 28.0645 115.512 28.4911C114.503 28.8966 113.288 29.0993 111.868 29.0993C110.492 29.0993 109.268 28.79 108.193 28.1712C107.118 27.5311 106.258 26.6563 105.612 25.5469C104.99 24.4375 104.613 23.1893 104.485 21.8025C104.441 21.1623 104.419 20.6717 104.419 20.3304C104.419 19.989 104.441 19.4982 104.485 18.8581C104.613 17.5353 104.99 16.3404 105.612 15.2738C106.258 14.2069 107.106 13.3641 108.16 12.7455C109.235 12.1267 110.471 11.8174 111.868 11.8174ZM116.416 18.9542V18.8581C116.416 17.5567 115.996 16.5219 115.158 15.7537C114.341 14.9643 113.245 14.5697 111.868 14.5697C110.622 14.5697 109.557 14.9643 108.676 15.7537C107.816 16.5433 107.376 17.578 107.355 18.8581V18.9542H116.416Z" fill="white"/>
<path d="M126.142 13.9936C126.658 13.3322 127.238 12.8094 127.883 12.4253C128.528 12.02 129.388 11.8174 130.463 11.8174C132.978 11.8174 134.741 12.7455 135.75 14.6017C136.375 13.7055 137.083 13.0227 137.879 12.5533C138.674 12.0627 139.718 11.8174 141.006 11.8174C143.113 11.8174 144.673 12.4467 145.682 13.7055C146.715 14.9643 147.231 16.7459 147.231 19.0502V27.9152C147.231 28.1498 147.145 28.3526 146.973 28.5232C146.8 28.694 146.596 28.7793 146.36 28.7793H145.166C144.931 28.7793 144.726 28.694 144.555 28.5232C144.382 28.3526 144.297 28.1498 144.297 27.9152V19.3702C144.297 16.1698 143.028 14.5697 140.492 14.5697C139.33 14.5697 138.406 14.9536 137.718 15.7218C137.031 16.4898 136.685 17.6313 136.685 19.1462V27.9152C136.685 28.1498 136.6 28.3526 136.429 28.5232C136.257 28.694 136.053 28.7793 135.816 28.7793H134.623C134.386 28.7793 134.182 28.694 134.01 28.5232C133.837 28.3526 133.752 28.1498 133.752 27.9152V19.3702C133.752 16.1698 132.483 14.5697 129.947 14.5697C128.787 14.5697 127.861 14.9536 127.174 15.7218C126.486 16.4898 126.142 17.6313 126.142 19.1462V27.9152C126.142 28.1498 126.057 28.3526 125.884 28.5232C125.711 28.694 125.508 28.7793 125.271 28.7793H124.078C123.841 28.7793 123.637 28.694 123.465 28.5232C123.294 28.3526 123.207 28.1498 123.207 27.9152V13.0014C123.207 12.7667 123.294 12.564 123.465 12.3934C123.637 12.2227 123.841 12.1374 124.078 12.1374H125.271C125.508 12.1374 125.711 12.2227 125.884 12.3934C126.057 12.564 126.142 12.7667 126.142 13.0014V13.9936Z" fill="white"/>
<path d="M156.262 34.0919C156.068 34.6038 155.758 34.8599 155.327 34.8599H154.005C153.79 34.8599 153.608 34.7853 153.457 34.6359C153.305 34.4865 153.231 34.3052 153.231 34.0919C153.231 34.0064 153.241 33.9318 153.263 33.8679L156.359 27.179L149.974 13.1294C149.952 13.0654 149.941 12.9908 149.941 12.9053C149.941 12.692 150.017 12.5107 150.168 12.3613C150.317 12.2119 150.501 12.1373 150.715 12.1373H152.038C152.467 12.1373 152.779 12.3934 152.973 12.9053L157.939 23.7866L162.969 12.9053C163.162 12.3934 163.474 12.1373 163.905 12.1373H165.226C165.441 12.1373 165.624 12.2119 165.775 12.3613C165.925 12.5107 166 12.692 166 12.9053C166 12.9908 165.989 13.0654 165.967 13.1294L156.262 34.0919Z" fill="white"/>
<path d="M28.4351 19.004L17.6188 0.411658C17.5663 0.319947 17.4906 0.243522 17.3986 0.190106C17.3082 0.13669 17.203 0.108091 17.0978 0.107434C16.991 0.106776 16.8858 0.133897 16.7938 0.186162C16.7017 0.238428 16.6245 0.314028 16.5719 0.405081L13.3324 5.97611C13.2256 6.15855 13.1697 6.36531 13.1697 6.57601C13.1697 6.78655 13.2256 6.99331 13.3324 7.17575L20.385 19.3048C20.4918 19.4874 20.6446 19.6389 20.8271 19.7441C21.0112 19.8494 21.2199 19.9048 21.4336 19.9045H27.9108C28.0177 19.9043 28.1212 19.8764 28.2133 19.8236C28.3053 19.7709 28.3809 19.6951 28.4351 19.6039C28.4877 19.5127 28.5157 19.4093 28.5157 19.3041C28.5157 19.1988 28.4877 19.0954 28.4351 19.004Z" fill="white"/>
<path d="M0.0838259 28.721L10.9001 10.1287C10.9527 10.0377 11.0283 9.96204 11.1204 9.90945C11.2124 9.85686 11.3176 9.82924 11.4228 9.82924C11.5296 9.82924 11.6332 9.85686 11.7252 9.90945C11.8172 9.96204 11.8928 10.0377 11.9454 10.1287L15.1865 15.6948C15.2934 15.8774 15.3493 16.0847 15.3493 16.2954C15.3493 16.5062 15.2934 16.7133 15.1865 16.8961L8.13401 29.0251C8.02882 29.2075 7.87595 29.3592 7.69187 29.4644C7.50779 29.5698 7.30071 29.6252 7.08705 29.6248H0.608123C0.501292 29.6255 0.396096 29.5979 0.302413 29.5451C0.210373 29.4922 0.133135 29.4161 0.0805406 29.3242C0.0279465 29.2324 0 29.1281 0 29.0223C0 28.9163 0.0295883 28.8124 0.0838259 28.721Z" fill="white"/>
<path d="M11.9437 29.6211H33.5763C33.6831 29.6209 33.7867 29.5932 33.8787 29.5404C33.9707 29.4876 34.048 29.4119 34.1006 29.3205C34.1532 29.2293 34.1811 29.1257 34.1811 29.0204C34.1811 28.9152 34.1531 28.8116 34.0989 28.7206L30.8627 23.1512C30.7576 22.9686 30.6047 22.8171 30.4206 22.7119C30.2365 22.6065 30.0278 22.5511 29.8158 22.5515H15.7091C15.4971 22.5511 15.2883 22.6065 15.1042 22.7119C14.9202 22.8171 14.7673 22.9686 14.6621 23.1512L11.4227 28.7206C11.3684 28.8116 11.3405 28.9152 11.3405 29.0204C11.3405 29.1257 11.3684 29.2293 11.421 29.3205C11.4736 29.4119 11.5509 29.4876 11.6429 29.5404C11.7333 29.5932 11.8385 29.6209 11.9437 29.6211Z" fill="white"/>
</svg>
