<svg width="156" height="20" viewBox="0 0 156 20" fill="none" xmlns="http://www.w3.org/2000/svg">
<path d="M18.4253 11.9734L11.4205 0.192684C11.3864 0.134526 11.3377 0.0857679 11.2783 0.0522831C11.2184 0.018211 11.1509 0 11.0821 0C11.0134 0 10.9458 0.0170361 10.8859 0.0499333C10.826 0.0828306 10.7767 0.131002 10.742 0.188572L8.64422 3.71856C8.57548 3.83429 8.53906 3.96529 8.53906 4.09865C8.53906 4.232 8.57548 4.363 8.64422 4.47873L13.2116 12.1638C13.2804 12.2795 13.3797 12.3752 13.4983 12.4422C13.6176 12.5086 13.7527 12.5438 13.8902 12.5438H18.0857C18.1545 12.5438 18.222 12.5262 18.2814 12.4927C18.3407 12.4592 18.39 12.4111 18.4247 12.3535C18.4588 12.2959 18.477 12.2301 18.4776 12.1638C18.4776 12.0974 18.4599 12.0316 18.4253 11.9734Z" fill="#020202"/>
<path d="M0.053458 18.1306L7.05822 6.3499C7.09288 6.29233 7.14223 6.24416 7.20156 6.21126C7.26089 6.17778 7.32845 6.16016 7.39718 6.16016C7.46592 6.16016 7.53347 6.17778 7.5928 6.21126C7.65214 6.24475 7.70148 6.29233 7.73614 6.3499L9.8351 9.87696C9.90384 9.99269 9.93967 10.1237 9.93967 10.2576C9.93967 10.3916 9.90384 10.5226 9.8351 10.6383L5.26767 18.3233C5.19894 18.4391 5.10025 18.5348 4.98158 18.6018C4.86233 18.6688 4.72781 18.7034 4.59034 18.7034H0.393005C0.323685 18.7034 0.256129 18.6864 0.196209 18.6529C0.136289 18.6194 0.0863553 18.5712 0.0522831 18.5131C0.0176235 18.4549 0 18.3891 0 18.3216C0 18.2546 0.0187984 18.1888 0.0540455 18.1306H0.053458Z" fill="#020202"/>
<path d="M7.7428 18.7006H21.7523C21.8211 18.7006 21.8886 18.683 21.948 18.6495C22.0073 18.616 22.0566 18.5678 22.0913 18.5103C22.1254 18.4521 22.1436 18.3869 22.1436 18.3199C22.1436 18.253 22.1254 18.1878 22.0907 18.1296L19.9953 14.6008C19.9265 14.4851 19.8278 14.3893 19.7086 14.3223C19.5893 14.2554 19.4542 14.2207 19.3168 14.2207H10.1807C10.0433 14.2207 9.90815 14.2554 9.7889 14.3223C9.66964 14.3893 9.57095 14.4851 9.50222 14.6008L7.40443 18.1296C7.36977 18.1872 7.35156 18.253 7.35156 18.3199C7.35156 18.3869 7.36919 18.4521 7.40385 18.5103C7.43792 18.5678 7.48726 18.616 7.54718 18.6495C7.60652 18.683 7.67407 18.7006 7.7428 18.7006Z" fill="#020202"/>
<path d="M29.7962 2.30304V17.2466H31.5585V18.9725H27.6484V0.577692H31.5585V2.30362L29.7962 2.30304Z" fill="url(#paint0_linear_696_23256)"/>
<path d="M42.2047 14.6031C41.8681 15.0989 41.4581 15.4861 40.9746 15.7645C40.4911 16.043 39.9495 16.1822 39.3497 16.1822C38.8357 16.1822 38.3657 16.1011 37.941 15.939C37.5157 15.7769 37.1503 15.5243 36.8442 15.1818C36.544 14.8393 36.312 14.3999 36.1463 13.8647C35.9813 13.3295 35.8984 12.6886 35.8984 11.942V6.05807H38.092V11.9602C38.092 12.419 38.1255 12.8032 38.193 13.1122C38.26 13.4212 38.3675 13.6673 38.5143 13.8512C38.6612 14.0409 38.848 14.1755 39.0742 14.2554C39.3004 14.3353 39.5665 14.3746 39.8725 14.3746C40.1786 14.3746 40.4753 14.3394 40.7261 14.2689C40.977 14.1984 41.1972 14.102 41.387 13.9799C41.5462 13.8694 41.6866 13.7396 41.8094 13.5898C41.9316 13.44 42.0355 13.2731 42.1213 13.0893V6.05807H44.3242V15.9895H42.3322L42.2035 14.6037L42.2047 14.6031Z" fill="url(#paint1_linear_696_23256)"/>
<path d="M48.2381 6.05755H50.2208L50.3582 7.47096C50.4928 7.28121 50.6414 7.10556 50.8035 6.94342C50.9657 6.78129 51.1384 6.63619 51.3222 6.50753C51.616 6.30545 51.9373 6.14978 52.2862 6.03934C52.6352 5.9289 53.0023 5.87426 53.3877 5.87426C53.8953 5.87426 54.3605 5.94769 54.7829 6.09456C55.2053 6.24142 55.566 6.47405 55.8662 6.79245C56.1658 7.11085 56.3984 7.51619 56.5641 8.00847C56.7291 8.50134 56.812 9.09643 56.812 9.79374V15.9896H54.6184V9.83075C54.6184 9.4207 54.5726 9.07822 54.481 8.80271C54.3893 8.52719 54.2542 8.3069 54.0768 8.14182C53.8994 7.97675 53.685 7.85867 53.4341 7.78818C53.1833 7.71768 52.8954 7.68244 52.5711 7.68244C52.3021 7.68244 52.0507 7.71768 51.8186 7.78818C51.586 7.85867 51.3751 7.95795 51.1854 8.0866C51.0385 8.18471 50.901 8.30396 50.7724 8.44436C50.6437 8.58535 50.5303 8.73809 50.4328 8.90316V15.989H48.2393V6.05755H48.2381Z" fill="url(#paint2_linear_696_23256)"/>
<path d="M65.6674 6.05745V14.1713H68.5865V15.9889H60.3986V14.1713H63.4551V7.88383H60.3986V6.05745H65.6674ZM63.3452 2.99624C63.4063 2.84644 63.495 2.71603 63.6113 2.60617C63.7218 2.5022 63.8545 2.42113 64.0108 2.36297C64.1671 2.30481 64.3427 2.27603 64.5383 2.27603C64.8685 2.27603 65.1364 2.36003 65.3414 2.52863C65.5464 2.69723 65.6639 2.91282 65.695 3.176C65.7379 3.44505 65.6921 3.67945 65.5576 3.87801C65.423 4.07715 65.2274 4.20992 64.9701 4.27747C64.8415 4.39379 64.6887 4.47016 64.5113 4.50717C64.3339 4.54359 64.1377 4.5289 63.9239 4.46134C63.7036 4.39438 63.5367 4.27336 63.4233 4.09889C63.31 3.92441 63.2536 3.72116 63.2536 3.48853C63.2536 3.31112 63.2841 3.14722 63.3452 2.99742V2.99624Z" fill="url(#paint3_linear_696_23256)"/>
<path d="M70.1367 6.05757H72.4131L74.8733 13.2632L75.0202 13.9241L75.167 13.2632L77.5997 6.05757H79.876L75.9842 15.989H74.0474L70.1367 6.05757Z" fill="url(#paint4_linear_696_23256)"/>
<path d="M84.6995 15.8056C84.0903 15.5606 83.5686 15.221 83.1345 14.7869C82.6998 14.3587 82.365 13.8523 82.1294 13.2678C81.8938 12.6832 81.7758 12.0517 81.7758 11.3721V10.9955C81.7758 10.2183 81.8979 9.51454 82.1429 8.8842C82.3879 8.25387 82.7239 7.71576 83.1527 7.26871C83.581 6.82225 84.078 6.478 84.6443 6.23597C85.21 5.99453 85.8145 5.87352 86.4571 5.87352C87.1733 5.87352 87.8065 5.99453 88.357 6.23597C88.908 6.478 89.3697 6.81285 89.7428 7.2411C90.1158 7.67582 90.3972 8.19277 90.5875 8.79256C90.7773 9.39235 90.8718 10.0474 90.8718 10.757V11.7022H83.9875V11.748C84.0545 12.1827 84.159 12.5464 84.2994 12.8401C84.4398 13.1338 84.6331 13.397 84.8775 13.6296C85.1225 13.8746 85.4115 14.0643 85.7452 14.1989C86.0788 14.3334 86.4442 14.401 86.8419 14.401C87.3865 14.401 87.8946 14.2952 88.3658 14.0843C88.8369 13.8734 89.2252 13.5721 89.5313 13.1802L90.7062 14.3187C90.376 14.7957 89.8691 15.2246 89.187 15.6041C88.5044 15.9835 87.6802 16.1733 86.7133 16.1733C85.979 16.1733 85.3075 16.0511 84.6983 15.8061L84.6995 15.8056ZM85.5807 7.82444C85.3146 7.93782 85.0772 8.09819 84.8693 8.30615C84.6613 8.52057 84.4868 8.77729 84.3458 9.07689C84.2049 9.37707 84.1009 9.71662 84.0339 10.0955H88.7059V9.94866C88.7059 9.6614 88.6536 9.37472 88.5497 9.0904C88.4457 8.80607 88.2988 8.55641 88.1091 8.34257C87.9258 8.13462 87.6943 7.96778 87.4159 7.84206C87.1374 7.71694 86.8149 7.65408 86.4478 7.65408C86.1358 7.65408 85.8468 7.71048 85.5801 7.82385L85.5807 7.82444Z" fill="url(#paint5_linear_696_23256)"/>
<path d="M101.258 5.94762C101.592 5.99637 101.853 6.05453 102.043 6.12209L101.731 8.28861C101.394 8.21518 101.062 8.15996 100.735 8.12353C100.408 8.08711 100.082 8.06831 99.7577 8.06831C99.3905 8.06831 99.0598 8.10474 98.7661 8.17876C98.4723 8.25277 98.2121 8.36556 97.9859 8.5183C97.741 8.66516 97.533 8.85197 97.362 9.07814C97.1905 9.3049 97.0466 9.56455 96.9309 9.85828V15.9901H94.7373V6.05747H96.7934L96.885 7.43445L96.8944 7.66415C97.2986 7.10724 97.7832 6.66959 98.3495 6.35178C98.9153 6.03338 99.5415 5.87477 100.226 5.87477C100.581 5.87477 100.926 5.89945 101.259 5.9482L101.258 5.94762Z" fill="url(#paint6_linear_696_23256)"/>
<path d="M111.016 12.8408C110.939 12.7062 110.812 12.5776 110.635 12.4554C110.445 12.345 110.197 12.2416 109.891 12.1435C109.585 12.0454 109.203 11.9537 108.744 11.8679C108.169 11.7516 107.644 11.6077 107.169 11.4368C106.695 11.2652 106.287 11.0573 105.944 10.8129C105.607 10.5803 105.344 10.3053 105.155 9.98693C104.965 9.66853 104.87 9.29844 104.87 8.87606C104.87 8.45368 104.967 8.08829 105.159 7.72407C105.352 7.35985 105.629 7.04027 105.99 6.76476C106.345 6.48925 106.775 6.27248 107.279 6.11328C107.784 5.95408 108.346 5.87477 108.964 5.87477C109.624 5.87477 110.218 5.95584 110.744 6.11798C111.27 6.28011 111.717 6.50217 112.084 6.78356C112.445 7.06495 112.723 7.39862 112.919 7.78399C113.115 8.16936 113.213 8.58586 113.213 9.03232H111.02C111.02 8.84904 110.981 8.6728 110.905 8.50479C110.829 8.33678 110.717 8.18522 110.57 8.05069C110.399 7.89149 110.178 7.7646 109.909 7.67002C109.64 7.57544 109.325 7.52786 108.964 7.52786C108.634 7.52786 108.344 7.56311 108.096 7.6336C107.849 7.70409 107.645 7.80044 107.486 7.92263C107.327 8.03307 107.208 8.16289 107.128 8.31269C107.048 8.46249 107.009 8.61993 107.009 8.78559C107.009 8.95125 107.043 9.11163 107.11 9.24909C107.177 9.38655 107.297 9.50757 107.468 9.61155C107.627 9.72199 107.849 9.82244 108.133 9.91467C108.418 10.0069 108.777 10.0891 109.212 10.1626C109.818 10.273 110.372 10.4075 110.873 10.5667C111.375 10.7259 111.803 10.9216 112.159 11.1542C112.513 11.3992 112.789 11.6864 112.985 12.0172C113.18 12.3473 113.278 12.7391 113.278 13.1921C113.278 13.645 113.176 14.0368 112.971 14.4034C112.766 14.7705 112.477 15.086 112.103 15.3486C111.724 15.6118 111.271 15.8168 110.745 15.9637C110.219 16.1105 109.634 16.184 108.992 16.184C108.276 16.184 107.641 16.0888 107.088 15.8996C106.534 15.7099 106.07 15.459 105.697 15.1471C105.318 14.841 105.03 14.4892 104.834 14.0914C104.639 13.6937 104.541 13.2902 104.541 12.8801H106.67C106.688 13.1862 106.769 13.4447 106.913 13.6556C107.057 13.8665 107.239 14.0362 107.46 14.1649C107.673 14.2994 107.918 14.3957 108.194 14.4539C108.469 14.5121 108.748 14.5409 109.029 14.5409C109.409 14.5409 109.741 14.5009 110.025 14.4216C110.309 14.3423 110.537 14.2348 110.709 14.1003C110.849 13.9898 110.955 13.8694 111.025 13.7378C111.096 13.6062 111.131 13.4611 111.131 13.3019C111.131 13.1304 111.093 12.9776 111.017 12.8431L111.016 12.8408Z" fill="url(#paint7_linear_696_23256)"/>
<path d="M122.07 6.05752V14.1714H124.989V15.989H116.802V14.1714H119.858V7.8839H116.802V6.05752H122.07ZM119.748 2.99631C119.809 2.84651 119.898 2.7161 120.014 2.60624C120.125 2.50226 120.258 2.4212 120.414 2.36304C120.57 2.30488 120.746 2.27609 120.941 2.27609C121.271 2.27609 121.539 2.3601 121.744 2.5287C121.949 2.6973 122.067 2.91289 122.098 3.17607C122.141 3.44512 122.095 3.67952 121.961 3.87807C121.826 4.07722 121.63 4.20998 121.373 4.27754C121.244 4.39386 121.092 4.47022 120.914 4.50723C120.737 4.54366 120.541 4.52897 120.327 4.46141C120.107 4.39444 119.94 4.27343 119.826 4.09896C119.713 3.92448 119.657 3.72122 119.657 3.48859C119.657 3.31118 119.687 3.14728 119.748 2.99748V2.99631Z" fill="url(#paint8_linear_696_23256)"/>
<path d="M131.61 6.05755H135.345V7.70065H131.61V12.4461C131.61 12.8132 131.654 13.1205 131.743 13.3684C131.832 13.6163 131.956 13.8107 132.115 13.9511C132.274 14.098 132.464 14.202 132.684 14.2631C132.905 14.3242 133.146 14.3547 133.409 14.3547C133.599 14.3547 133.795 14.3453 133.997 14.3271C134.199 14.3089 134.394 14.2842 134.584 14.2537C134.767 14.229 134.941 14.2002 135.103 14.1667C135.265 14.1332 135.401 14.1039 135.511 14.0798L135.75 15.5942C135.59 15.6923 135.4 15.7763 135.176 15.8468C134.952 15.9173 134.712 15.9767 134.455 16.026C134.198 16.0748 133.93 16.1129 133.652 16.1406C133.373 16.1682 133.097 16.1817 132.821 16.1817C132.32 16.1817 131.859 16.1129 131.44 15.9749C131.02 15.8374 130.661 15.6213 130.361 15.3275C130.061 15.0403 129.827 14.6696 129.659 14.2167C129.49 13.7637 129.406 13.2192 129.406 12.583V7.70006H127.001V6.05696H129.406V3.63372H131.609V6.05696L131.61 6.05755Z" fill="url(#paint9_linear_696_23256)"/>
<path d="M139.5 19.9502C139.307 19.9167 139.122 19.8779 138.945 19.8356L139.248 18.1191C139.37 18.125 139.509 18.1326 139.665 18.142C139.822 18.1514 139.948 18.1555 140.046 18.1555C140.26 18.1555 140.453 18.0927 140.624 17.9675C140.796 17.8418 140.945 17.6997 141.074 17.5405C141.196 17.3813 141.295 17.2409 141.372 17.1181C141.449 16.9959 141.52 16.8673 141.588 16.7327L142.212 15.5484L137.98 6.05757H140.394L142.863 12.1248L143.203 13.2168L143.616 12.1524L146.012 6.05757H148.444L143.405 17.4947C143.289 17.752 143.144 18.0257 142.969 18.3159C142.795 18.6067 142.576 18.874 142.313 19.119C142.05 19.3698 141.738 19.5795 141.377 19.7475C141.015 19.9155 140.593 20.0001 140.11 20.0001C139.896 20.0001 139.692 19.9837 139.5 19.9502Z" fill="url(#paint10_linear_696_23256)"/>
<path d="M155.576 0.577736V18.972H151.656V17.2461H153.428V2.30308H151.656V0.577148L155.576 0.577736Z" fill="url(#paint11_linear_696_23256)"/>
<defs>
<linearGradient id="paint0_linear_696_23256" x1="27.6484" y1="0.577148" x2="37.48" y2="48.1972" gradientUnits="userSpaceOnUse">
<stop offset="0.24238" stop-color="#36BEFF"/>
<stop offset="1" stop-color="#733FF1"/>
</linearGradient>
<linearGradient id="paint1_linear_696_23256" x1="27.6484" y1="0.577148" x2="37.48" y2="48.1972" gradientUnits="userSpaceOnUse">
<stop offset="0.24238" stop-color="#36BEFF"/>
<stop offset="1" stop-color="#733FF1"/>
</linearGradient>
<linearGradient id="paint2_linear_696_23256" x1="27.6484" y1="0.577148" x2="37.48" y2="48.1972" gradientUnits="userSpaceOnUse">
<stop offset="0.24238" stop-color="#36BEFF"/>
<stop offset="1" stop-color="#733FF1"/>
</linearGradient>
<linearGradient id="paint3_linear_696_23256" x1="27.6484" y1="0.577148" x2="37.48" y2="48.1972" gradientUnits="userSpaceOnUse">
<stop offset="0.24238" stop-color="#36BEFF"/>
<stop offset="1" stop-color="#733FF1"/>
</linearGradient>
<linearGradient id="paint4_linear_696_23256" x1="27.6484" y1="0.577148" x2="37.48" y2="48.1972" gradientUnits="userSpaceOnUse">
<stop offset="0.24238" stop-color="#36BEFF"/>
<stop offset="1" stop-color="#733FF1"/>
</linearGradient>
<linearGradient id="paint5_linear_696_23256" x1="27.6484" y1="0.577148" x2="37.48" y2="48.1972" gradientUnits="userSpaceOnUse">
<stop offset="0.24238" stop-color="#36BEFF"/>
<stop offset="1" stop-color="#733FF1"/>
</linearGradient>
<linearGradient id="paint6_linear_696_23256" x1="27.6484" y1="0.577148" x2="37.48" y2="48.1972" gradientUnits="userSpaceOnUse">
<stop offset="0.24238" stop-color="#36BEFF"/>
<stop offset="1" stop-color="#733FF1"/>
</linearGradient>
<linearGradient id="paint7_linear_696_23256" x1="27.6484" y1="0.577148" x2="37.48" y2="48.1972" gradientUnits="userSpaceOnUse">
<stop offset="0.24238" stop-color="#36BEFF"/>
<stop offset="1" stop-color="#733FF1"/>
</linearGradient>
<linearGradient id="paint8_linear_696_23256" x1="27.6484" y1="0.577148" x2="37.48" y2="48.1972" gradientUnits="userSpaceOnUse">
<stop offset="0.24238" stop-color="#36BEFF"/>
<stop offset="1" stop-color="#733FF1"/>
</linearGradient>
<linearGradient id="paint9_linear_696_23256" x1="27.6484" y1="0.577148" x2="37.48" y2="48.1972" gradientUnits="userSpaceOnUse">
<stop offset="0.24238" stop-color="#36BEFF"/>
<stop offset="1" stop-color="#733FF1"/>
</linearGradient>
<linearGradient id="paint10_linear_696_23256" x1="27.6484" y1="0.577148" x2="37.48" y2="48.1972" gradientUnits="userSpaceOnUse">
<stop offset="0.24238" stop-color="#36BEFF"/>
<stop offset="1" stop-color="#733FF1"/>
</linearGradient>
<linearGradient id="paint11_linear_696_23256" x1="27.6484" y1="0.577148" x2="37.48" y2="48.1972" gradientUnits="userSpaceOnUse">
<stop offset="0.24238" stop-color="#36BEFF"/>
<stop offset="1" stop-color="#733FF1"/>
</linearGradient>
</defs>
</svg>
