<svg xmlns="http://www.w3.org/2000/svg" width="166" height="159" viewBox="0 0 166 159" fill="none">
<path fill-rule="evenodd" clip-rule="evenodd" d="M56.5304 0.644051L55.5891 0.972797L0.975867 64.1394L1.29794 65.0457L0.916824 65.4935L28.0187 143.027L28.7837 143.681L110.236 158.5L111.359 157.186L111.221 156.792L164.902 94.8983L165.092 93.9177L138.414 16.3778L137.84 16.2658L137.717 15.9096L56.5304 0.644051ZM84.9362 78.5L137.149 18.8484L163.014 94.0233L110.463 154.614L84.1661 79.3836L84.9362 78.5ZM135.434 17.5154L56.7259 2.71587L3.64056 64.1153L82.6425 78.0839L83.431 77.1831L135.434 17.5154ZM82.4298 80.4872L108.904 156.225L29.7145 141.817L3.36878 66.447L82.4298 80.4872Z" fill="#5578F8"/>
</svg>