<svg width="58" height="58" viewBox="0 0 58 58" fill="none" xmlns="http://www.w3.org/2000/svg">
<rect x="1" y="1" width="56" height="56" rx="16" fill="#FCDF79"/>
<path d="M34.0008 35.6833C35.6778 37.5696 38.3057 37.6974 39.9244 37.0613C40.834 36.7041 41.4785 36.0893 41.5956 35.0637C41.7037 34.116 41.3735 33.3193 40.5875 32.793C37.5584 30.7651 34.0268 30.3904 31.7572 27.6019C30.5651 26.1374 30.1692 24.4259 30.2439 22.583C30.368 19.5195 32.38 17.0749 35.4393 16.3287C37.6013 15.8013 39.7474 15.875 41.8071 16.7956C43.3659 17.4926 44.4387 18.7101 45.2836 20.1857C43.9346 21.0518 42.5952 21.9109 41.2575 22.7696C41.0348 22.4505 40.835 22.1394 40.6113 21.8468C39.6239 20.5541 38.0953 20.3447 36.9382 20.6956C35.0227 21.276 35.0195 23.5461 35.9683 24.436C38.6386 26.9409 46.4936 27.313 46.8106 34.222C46.8758 35.6478 46.6611 37.0179 45.9429 38.2741C44.1588 41.3954 40.2748 42.2753 36.7151 41.9212C33.2195 41.5735 30.2927 39.8345 28.6719 36.6808C30.0833 35.864 32.8639 34.2543 32.8639 34.2543C32.8639 34.2543 33.4678 35.0832 34.0008 35.6833Z" stroke="#020202"/>
<path d="M14.5715 34.9123C15.6134 36.3654 16.2076 37.6572 18.2383 37.5763C18.5587 37.5635 18.8841 37.5363 19.195 37.4666C20.772 37.1141 21.0498 35.7158 21.0514 34.1578L21.0558 16.4531H26.4646C26.4717 16.5282 26.4845 16.6038 26.4845 16.6789C26.4845 22.6676 26.49 28.6563 26.4762 34.645C26.4679 38.2935 24.6209 41.1987 20.8688 41.9788C18.6328 42.4441 16.419 42.3664 14.297 41.4585C12.4069 40.6497 11.0972 39.3253 10.1875 37.5187C10.1875 37.5187 13.9964 35.247 14.5715 34.9123Z" stroke="#020202"/>
<rect x="1" y="1" width="56" height="56" rx="16" stroke="#020202" stroke-width="2"/>
</svg>
