<svg width="348" height="32" viewBox="0 0 348 32" fill="none" xmlns="http://www.w3.org/2000/svg">
<g clip-path="url(#clip0_663_10508)">
<path d="M26.7286 17.2232L16.6526 0.277166C16.6036 0.193509 16.5335 0.123373 16.4481 0.0752066C16.3619 0.0261956 16.2648 0 16.1659 0C16.067 0 15.9699 0.0245055 15.8837 0.0718266C15.7975 0.119148 15.7265 0.188439 15.6766 0.271251L12.6591 5.34897C12.5602 5.51543 12.5078 5.70387 12.5078 5.89569C12.5078 6.08751 12.5602 6.27595 12.6591 6.44242L19.2291 17.497C19.328 17.6634 19.4708 17.8012 19.6415 17.8975C19.813 17.993 20.0074 18.0437 20.2051 18.0437H26.2402C26.3391 18.0437 26.4363 18.0183 26.5216 17.9702C26.6069 17.922 26.6779 17.8527 26.7278 17.7699C26.7768 17.6871 26.803 17.5924 26.8038 17.497C26.8038 17.4015 26.7785 17.3068 26.7286 17.2232Z" fill="#020202"/>
<path d="M0.311272 26.0798L10.3873 9.13378C10.4371 9.05097 10.5081 8.98168 10.5935 8.93436C10.6788 8.88619 10.776 8.86084 10.8748 8.86084C10.9737 8.86084 11.0709 8.88619 11.1562 8.93436C11.2416 8.98252 11.3126 9.05097 11.3624 9.13378L14.3817 14.2073C14.4805 14.3737 14.5321 14.5622 14.5321 14.7548C14.5321 14.9475 14.4805 15.1359 14.3817 15.3024L7.81165 26.3569C7.71279 26.5234 7.57082 26.6612 7.40013 26.7575C7.22859 26.8538 7.03508 26.9037 6.83735 26.9037H0.799692C0.69998 26.9037 0.602803 26.8792 0.516611 26.831C0.430419 26.7828 0.358593 26.7135 0.309582 26.6299C0.259726 26.5462 0.234375 26.4516 0.234375 26.3544C0.234375 26.2581 0.261416 26.1634 0.312117 26.0798H0.311272Z" fill="#020202"/>
<path d="M11.3675 26.8992H31.5195C31.6183 26.8992 31.7155 26.8738 31.8009 26.8257C31.8862 26.7775 31.9572 26.7082 32.007 26.6254C32.0561 26.5417 32.0823 26.4479 32.0823 26.3516C32.0823 26.2553 32.0561 26.1615 32.0062 26.0778L28.992 21.0018C28.8932 20.8353 28.7512 20.6976 28.5796 20.6013C28.4081 20.5049 28.2138 20.4551 28.016 20.4551H14.8743C14.6766 20.4551 14.4822 20.5049 14.3107 20.6013C14.1391 20.6976 13.9972 20.8353 13.8983 21.0018L10.8807 26.0778C10.8309 26.1606 10.8047 26.2553 10.8047 26.3516C10.8047 26.4479 10.83 26.5417 10.8799 26.6254C10.9289 26.7082 10.9999 26.7775 11.0861 26.8257C11.1714 26.8738 11.2686 26.8992 11.3675 26.8992Z" fill="#020202"/>
<path d="M49.0153 16.6342V16.2548C49.0153 15.3016 48.6849 14.5724 48.0241 14.0671C47.3836 13.5423 46.542 13.2795 45.5009 13.2795C44.6998 13.2795 44.0695 13.4155 43.6089 13.6876C43.1687 13.9403 42.7478 14.329 42.3473 14.8546C42.2273 15.0101 42.0972 15.1174 41.9569 15.1757C41.8166 15.234 41.6265 15.2636 41.3865 15.2636H40.4857C40.2652 15.2636 40.0649 15.1859 39.8849 15.0304C39.7244 14.8749 39.6542 14.6898 39.6745 14.476C39.7345 13.893 40.0252 13.3192 40.5457 12.7547C41.0865 12.1717 41.7972 11.6951 42.6786 11.3258C43.5599 10.9565 44.5013 10.7715 45.5018 10.7715C47.3642 10.7715 48.8658 11.2768 50.0074 12.2883C51.1693 13.2998 51.7498 14.7194 51.7498 16.5472V25.4435C51.7498 25.6573 51.6695 25.8424 51.5098 25.9979C51.3493 26.1534 51.1592 26.2311 50.9395 26.2311H49.8283C49.6077 26.2311 49.4176 26.1534 49.2579 25.9979C49.0982 25.8424 49.0179 25.6573 49.0179 25.4435V24.2478C48.6976 24.9475 48.0165 25.5018 46.9755 25.91C45.9344 26.3181 44.8925 26.5226 43.8514 26.5226C42.8298 26.5226 41.9189 26.3477 41.1178 25.9979C40.3167 25.6286 39.6956 25.1326 39.2554 24.5098C38.8346 23.8879 38.625 23.1873 38.625 22.4099C38.625 20.9514 39.1861 19.814 40.3074 18.9969C41.4288 18.1603 42.9211 17.5967 44.7835 17.3052L49.0187 16.6342H49.0153ZM49.0153 18.9682L45.4705 19.5225C44.1692 19.7168 43.1577 20.038 42.4369 20.485C41.7161 20.9125 41.3553 21.4576 41.3553 22.1184C41.3553 22.6043 41.5859 23.042 42.0465 23.4307C42.507 23.8194 43.2075 24.0138 44.1489 24.0138C45.5905 24.0138 46.7625 23.6149 47.6633 22.8181C48.5641 22.0212 49.0153 20.9802 49.0153 19.6974V18.9682Z" fill="#020202"/>
<path d="M58.8726 25.4427C58.8726 25.6565 58.7923 25.8415 58.6326 25.997C58.472 26.1525 58.2819 26.2302 58.0622 26.2302H56.951C56.7305 26.2302 56.5403 26.1525 56.3806 25.997C56.2209 25.8415 56.1406 25.6565 56.1406 25.4427V6.30806C56.1406 6.09428 56.2209 5.90922 56.3806 5.75373C56.5412 5.59825 56.7313 5.52051 56.951 5.52051H58.0622C58.2828 5.52051 58.4729 5.59825 58.6326 5.75373C58.7931 5.90922 58.8726 6.09428 58.8726 6.30806V25.4435V25.4427Z" fill="#020202"/>
<path d="M69.6851 24.0138C71.6878 24.0138 73.0399 23.2558 73.7404 21.739C73.8806 21.4474 74.0209 21.243 74.1612 21.1263C74.3015 21.0097 74.4916 20.9514 74.7316 20.9514H75.6324C75.8529 20.9514 76.043 21.0292 76.2036 21.1846C76.3642 21.3207 76.4436 21.4863 76.4436 21.6807C76.4436 22.3415 76.1732 23.0513 75.6324 23.8101C75.0916 24.5689 74.3108 25.2103 73.2891 25.7351C72.2675 26.2598 71.0659 26.5226 69.6843 26.5226C68.2621 26.5226 67.0309 26.2311 65.9899 25.648C64.9488 25.065 64.1477 24.2673 63.5866 23.2558C63.0255 22.2249 62.7154 21.0782 62.6554 19.814C62.6351 19.5808 62.625 19.1338 62.625 18.4721C62.625 18.0057 62.6351 17.6744 62.6554 17.4801C62.8354 15.4968 63.5266 13.8828 64.7283 12.6381C65.9299 11.3934 67.5819 10.7715 69.6843 10.7715C71.0659 10.7715 72.2574 11.0343 73.2587 11.559C74.2803 12.0644 75.051 12.6964 75.5715 13.4553C76.1123 14.1938 76.4022 14.8943 76.4427 15.5551C76.463 15.7689 76.3827 15.954 76.2028 16.1095C76.0422 16.2649 75.8521 16.3427 75.6315 16.3427H74.7307C74.4907 16.3427 74.3006 16.2844 74.1603 16.1678C74.0201 16.0512 73.8798 15.8467 73.7395 15.5551C73.0382 14.0383 71.687 13.2795 69.6843 13.2795C68.5832 13.2795 67.6216 13.6395 66.8002 14.3586C65.9789 15.0777 65.5082 16.1669 65.3882 17.6254C65.3679 17.8392 65.3578 18.1891 65.3578 18.6758C65.3578 19.1228 65.3679 19.454 65.3882 19.6678C65.5285 21.1263 65.9992 22.2156 66.8002 22.9347C67.6216 23.6538 68.5824 24.0138 69.6843 24.0138H69.6851Z" fill="#020202"/>
<path d="M93.9229 25.4427C93.9229 25.6565 93.8426 25.8415 93.6821 25.997C93.5224 26.1525 93.3323 26.2302 93.1117 26.2302H92.0005C91.78 26.2302 91.5898 26.1525 91.4293 25.997C91.2696 25.8415 91.1893 25.6565 91.1893 25.4427V17.742C91.1893 16.2835 90.8192 15.1748 90.0781 14.4169C89.337 13.6589 88.3052 13.2795 86.9836 13.2795C85.6823 13.2795 84.6505 13.6589 83.89 14.4169C83.1489 15.1757 82.7788 16.2835 82.7788 17.742V25.4427C82.7788 25.6565 82.6985 25.8415 82.5388 25.997C82.3783 26.1525 82.1882 26.2302 81.9685 26.2302H80.8572C80.6367 26.2302 80.4466 26.1525 80.2869 25.997C80.1272 25.8415 80.0469 25.6565 80.0469 25.4427V6.30806C80.0469 6.09428 80.1272 5.90922 80.2869 5.75373C80.4474 5.59825 80.6375 5.52051 80.8572 5.52051H81.9685C82.189 5.52051 82.3791 5.59825 82.5388 5.75373C82.6994 5.90922 82.7788 6.09428 82.7788 6.30806V12.7547C83.2191 12.1911 83.8199 11.7238 84.5812 11.3545C85.3629 10.9658 86.3135 10.7715 87.4349 10.7715C88.6965 10.7715 89.8187 11.0343 90.7997 11.559C91.7808 12.0838 92.5422 12.8426 93.0821 13.8346C93.6432 14.8073 93.9238 15.9641 93.9238 17.306V25.4444L93.9229 25.4427Z" fill="#020202"/>
<path d="M104.447 10.7702C106.59 10.7702 108.282 11.431 109.523 12.7535C110.765 14.076 111.386 15.875 111.386 18.1498V18.9373C111.386 19.1511 111.306 19.3362 111.146 19.4917C110.985 19.6472 110.795 19.7249 110.575 19.7249H100.241V19.8998C100.281 21.1834 100.682 22.194 101.443 22.9334C102.224 23.6525 103.225 24.0125 104.447 24.0125C105.448 24.0125 106.219 23.8858 106.76 23.6331C107.321 23.3805 107.821 23.0205 108.262 22.554C108.422 22.3985 108.562 22.2912 108.682 22.2329C108.823 22.1746 109.003 22.145 109.223 22.145H110.124C110.365 22.145 110.565 22.2228 110.725 22.3783C110.885 22.5337 110.955 22.7188 110.935 22.9326C110.855 23.4574 110.555 24.0024 110.034 24.566C109.533 25.1102 108.802 25.5775 107.842 25.9662C106.9 26.3355 105.769 26.5205 104.447 26.5205C103.165 26.5205 102.024 26.2383 101.022 25.6747C100.021 25.0916 99.2198 24.2939 98.619 23.2824C98.0385 22.2709 97.6878 21.1335 97.5678 19.8694C97.5281 19.2863 97.5078 18.8385 97.5078 18.5275C97.5078 18.2165 97.5281 17.7687 97.5678 17.1856C97.6878 15.9798 98.0385 14.8906 98.619 13.9188C99.2198 12.9462 100.011 12.178 100.993 11.6144C101.994 11.0508 103.145 10.7686 104.447 10.7686V10.7702ZM108.682 17.2752V17.1873C108.682 16.0009 108.292 15.0579 107.511 14.3582C106.75 13.6391 105.728 13.2791 104.447 13.2791C103.285 13.2791 102.294 13.6391 101.473 14.3582C100.672 15.0773 100.262 16.0203 100.241 17.1873V17.2752H108.682Z" fill="#020202"/>
<path d="M117.741 12.7538C118.222 12.1513 118.762 11.6747 119.363 11.3248C119.964 10.9556 120.765 10.7705 121.766 10.7705C124.11 10.7705 125.751 11.6164 126.693 13.3081C127.273 12.491 127.935 11.869 128.675 11.4415C129.416 10.9944 130.388 10.7705 131.59 10.7705C133.552 10.7705 135.003 11.3443 135.945 12.4918C136.906 13.6393 137.386 15.2626 137.386 17.3633V25.4434C137.386 25.6572 137.307 25.8423 137.146 25.9977C136.986 26.1532 136.796 26.231 136.576 26.231H135.464C135.244 26.231 135.053 26.1532 134.894 25.9977C134.733 25.8423 134.654 25.6572 134.654 25.4434V17.6549C134.654 14.7379 133.471 13.2794 131.109 13.2794C130.027 13.2794 129.166 13.6292 128.526 14.3297C127.884 15.0302 127.564 16.0705 127.564 17.4512V25.4434C127.564 25.6572 127.484 25.8423 127.324 25.9977C127.163 26.1532 126.973 26.231 126.753 26.231H125.642C125.421 26.231 125.231 26.1532 125.071 25.9977C124.911 25.8423 124.83 25.6572 124.83 25.4434V17.6549C124.83 14.7379 123.649 13.2794 121.286 13.2794C120.205 13.2794 119.344 13.6292 118.702 14.3297C118.062 15.0302 117.741 16.0705 117.741 17.4512V25.4434C117.741 25.6572 117.661 25.8423 117.501 25.9977C117.341 26.1532 117.151 26.231 116.93 26.231H115.819C115.598 26.231 115.408 26.1532 115.248 25.9977C115.088 25.8423 115.008 25.6572 115.008 25.4434V11.8496C115.008 11.6358 115.088 11.4507 115.248 11.2953C115.408 11.1398 115.598 11.062 115.819 11.062H116.93C117.151 11.062 117.341 11.1398 117.501 11.2953C117.661 11.4507 117.741 11.6358 117.741 11.8496V12.7538Z" fill="#020202"/>
<path d="M145.801 31.0723C145.621 31.5387 145.331 31.7728 144.931 31.7728H143.699C143.499 31.7728 143.329 31.7052 143.189 31.5683C143.048 31.4322 142.978 31.2666 142.978 31.0723C142.978 30.9945 142.988 30.9261 143.008 30.8678L145.892 24.771L139.944 11.9656C139.924 11.9073 139.914 11.8388 139.914 11.7611C139.914 11.5667 139.984 11.4011 140.124 11.265C140.265 11.129 140.435 11.0605 140.635 11.0605H141.867C142.267 11.0605 142.557 11.2938 142.738 11.7602L147.364 21.6782L152.049 11.7602C152.23 11.2938 152.52 11.0605 152.921 11.0605H154.153C154.353 11.0605 154.523 11.1281 154.663 11.265C154.803 11.4011 154.873 11.5667 154.873 11.7611C154.873 11.8388 154.863 11.9073 154.843 11.9656L145.801 31.0714V31.0723Z" fill="#020202"/>
<path d="M166.496 6.54412V28.0397H169.031V30.5224H163.406V4.0623H169.031V6.54497L166.496 6.54412Z" fill="url(#paint0_linear_663_10508)"/>
<path d="M184.345 24.2372C183.861 24.9504 183.271 25.5073 182.575 25.9078C181.88 26.3083 181.101 26.5086 180.238 26.5086C179.499 26.5086 178.823 26.392 178.212 26.1588C177.6 25.9255 177.074 25.5622 176.634 25.0695C176.202 24.5769 175.868 23.9448 175.63 23.175C175.393 22.4052 175.273 21.4833 175.273 20.4093V11.9456H178.429V20.4355C178.429 21.0954 178.477 21.6481 178.574 22.0925C178.67 22.537 178.825 22.8911 179.036 23.1556C179.248 23.4285 179.516 23.622 179.842 23.7369C180.167 23.8519 180.55 23.9085 180.99 23.9085C181.43 23.9085 181.857 23.8578 182.218 23.7564C182.579 23.655 182.896 23.5164 183.168 23.3406C183.397 23.1818 183.599 22.995 183.776 22.7795C183.952 22.5641 184.101 22.3241 184.225 22.0596V11.9456H187.394V26.2314H184.528L184.343 24.238L184.345 24.2372Z" fill="url(#paint1_linear_663_10508)"/>
<path d="M193.023 11.9448H195.875L196.073 13.9779C196.267 13.705 196.48 13.4523 196.714 13.2191C196.947 12.9859 197.195 12.7771 197.46 12.5921C197.882 12.3014 198.345 12.0775 198.846 11.9186C199.348 11.7597 199.877 11.6812 200.431 11.6812C201.161 11.6812 201.83 11.7868 202.438 11.998C203.045 12.2093 203.564 12.5439 203.996 13.0019C204.427 13.4599 204.762 14.043 205 14.7511C205.237 15.4601 205.356 16.3161 205.356 17.3191V26.2315H202.201V17.3724C202.201 16.7825 202.135 16.2899 202.003 15.8936C201.872 15.4973 201.677 15.1804 201.422 14.9429C201.167 14.7055 200.858 14.5356 200.498 14.4342C200.137 14.3328 199.723 14.2821 199.256 14.2821C198.869 14.2821 198.508 14.3328 198.174 14.4342C197.839 14.5356 197.536 14.6784 197.263 14.8635C197.052 15.0046 196.854 15.1761 196.669 15.3781C196.484 15.5809 196.321 15.8006 196.18 16.0381V26.2307H193.025V11.9448H193.023Z" fill="url(#paint2_linear_663_10508)"/>
<path d="M218.095 11.9447V23.616H222.294V26.2305H210.516V23.616H214.912V14.5718H210.516V11.9447H218.095ZM214.754 7.54127C214.842 7.32579 214.97 7.13819 215.137 6.98017C215.296 6.8306 215.487 6.71399 215.712 6.63034C215.936 6.54668 216.189 6.50527 216.47 6.50527C216.945 6.50527 217.331 6.62611 217.626 6.86863C217.921 7.11115 218.09 7.42127 218.134 7.79984C218.196 8.18686 218.13 8.52402 217.937 8.80964C217.743 9.0961 217.462 9.28707 217.092 9.38425C216.907 9.55156 216.687 9.66142 216.432 9.71465C216.176 9.76704 215.894 9.74592 215.587 9.64874C215.27 9.55241 215.03 9.37834 214.867 9.12737C214.704 8.87639 214.622 8.58402 214.622 8.24939C214.622 7.9942 214.666 7.75844 214.754 7.54296V7.54127Z" fill="url(#paint3_linear_663_10508)"/>
<path d="M224.523 11.9448H227.798L231.337 22.3098L231.548 23.2605L231.759 22.3098L235.259 11.9448H238.533L232.935 26.2307H230.149L224.523 11.9448Z" fill="url(#paint4_linear_663_10508)"/>
<path d="M245.471 25.9668C244.595 25.6144 243.845 25.126 243.22 24.5015C242.595 23.8855 242.113 23.1571 241.774 22.3163C241.435 21.4755 241.266 20.5671 241.266 19.5895V19.0478C241.266 17.9298 241.441 16.9175 241.794 16.0108C242.146 15.1041 242.629 14.3301 243.246 13.687C243.862 13.0448 244.577 12.5496 245.392 12.2015C246.206 11.8542 247.075 11.6801 248 11.6801C249.03 11.6801 249.941 11.8542 250.732 12.2015C251.525 12.5496 252.189 13.0313 252.726 13.6473C253.262 14.2726 253.667 15.0162 253.941 15.879C254.214 16.7417 254.35 17.6839 254.35 18.7047V20.0644H244.447V20.1303C244.543 20.7556 244.694 21.2786 244.896 21.7012C245.098 22.1237 245.376 22.5022 245.727 22.8369C246.08 23.1892 246.495 23.4622 246.975 23.6557C247.455 23.8492 247.981 23.9464 248.553 23.9464C249.336 23.9464 250.067 23.7943 250.745 23.4909C251.423 23.1875 251.981 22.754 252.422 22.1904L254.112 23.8281C253.637 24.5142 252.907 25.1311 251.926 25.677C250.944 26.2228 249.759 26.4958 248.368 26.4958C247.312 26.4958 246.346 26.32 245.47 25.9676L245.471 25.9668ZM246.739 14.4864C246.356 14.6495 246.015 14.8802 245.715 15.1793C245.416 15.4877 245.165 15.857 244.963 16.288C244.76 16.7198 244.61 17.2082 244.514 17.7532H251.234V17.542C251.234 17.1288 251.159 16.7164 251.01 16.3074C250.86 15.8984 250.649 15.5393 250.376 15.2317C250.112 14.9326 249.779 14.6926 249.379 14.5117C248.978 14.3317 248.514 14.2413 247.986 14.2413C247.537 14.2413 247.122 14.3225 246.738 14.4855L246.739 14.4864Z" fill="url(#paint5_linear_663_10508)"/>
<path d="M269.29 11.7867C269.77 11.8568 270.146 11.9405 270.419 12.0376L269.97 15.1541C269.486 15.0484 269.008 14.969 268.538 14.9166C268.067 14.8642 267.598 14.8372 267.132 14.8372C266.604 14.8372 266.128 14.8896 265.705 14.996C265.283 15.1025 264.908 15.2648 264.583 15.4845C264.231 15.6957 263.932 15.9644 263.686 16.2898C263.439 16.6159 263.232 16.9894 263.065 17.412V26.2323H259.91V11.9447H262.868L263 13.9254L263.013 14.2558C263.594 13.4547 264.292 12.8252 265.106 12.368C265.92 11.91 266.821 11.6819 267.806 11.6819C268.316 11.6819 268.812 11.7174 269.292 11.7875L269.29 11.7867Z" fill="url(#paint6_linear_663_10508)"/>
<path d="M283.326 21.7021C283.216 21.5086 283.033 21.3235 282.778 21.1478C282.505 20.9889 282.148 20.8402 281.708 20.6991C281.268 20.558 280.718 20.4261 280.058 20.3028C279.231 20.1354 278.475 19.9284 277.793 19.6825C277.111 19.4358 276.523 19.1366 276.03 18.7851C275.546 18.4505 275.168 18.055 274.895 17.597C274.622 17.139 274.486 16.6067 274.486 15.9991C274.486 15.3915 274.624 14.8659 274.902 14.342C275.179 13.8181 275.577 13.3584 276.096 12.9621C276.607 12.5658 277.225 12.254 277.951 12.025C278.677 11.796 279.485 11.6819 280.374 11.6819C281.325 11.6819 282.178 11.7985 282.935 12.0317C283.692 12.2649 284.334 12.5844 284.863 12.9891C285.381 13.3939 285.782 13.8739 286.064 14.4282C286.346 14.9825 286.487 15.5816 286.487 16.2239H283.331C283.331 15.9602 283.276 15.7067 283.167 15.465C283.057 15.2234 282.896 15.0053 282.685 14.8118C282.438 14.5828 282.121 14.4003 281.734 14.2643C281.347 14.1282 280.894 14.0598 280.375 14.0598C279.9 14.0598 279.483 14.1105 279.127 14.2119C278.77 14.3133 278.478 14.4519 278.249 14.6276C278.02 14.7865 277.848 14.9732 277.734 15.1887C277.619 15.4042 277.562 15.6307 277.562 15.8689C277.562 16.1072 277.611 16.3379 277.708 16.5357C277.804 16.7334 277.977 16.9075 278.222 17.057C278.451 17.2159 278.77 17.3604 279.18 17.4931C279.59 17.6257 280.106 17.744 280.731 17.8497C281.603 18.0085 282.399 18.202 283.121 18.431C283.843 18.66 284.459 18.9414 284.97 19.2761C285.48 19.6284 285.877 20.0417 286.158 20.5174C286.439 20.9923 286.581 21.5559 286.581 22.2074C286.581 22.8589 286.433 23.4226 286.139 23.9499C285.844 24.478 285.428 24.9318 284.89 25.3095C284.345 25.6881 283.693 25.983 282.937 26.1942C282.18 26.4055 281.339 26.5111 280.415 26.5111C279.385 26.5111 278.472 26.3742 277.676 26.1021C276.879 25.8292 276.212 25.4684 275.676 25.0197C275.13 24.5794 274.716 24.0732 274.434 23.5012C274.153 22.9291 274.012 22.3485 274.012 21.7587H277.075C277.101 22.199 277.218 22.5708 277.425 22.8742C277.632 23.1775 277.894 23.4217 278.211 23.6068C278.518 23.8003 278.871 23.9389 279.267 24.0225C279.663 24.1062 280.064 24.1476 280.468 24.1476C281.014 24.1476 281.492 24.0901 281.901 23.9761C282.31 23.862 282.638 23.7073 282.884 23.5138C283.086 23.355 283.238 23.1817 283.34 22.9925C283.441 22.8032 283.492 22.5945 283.492 22.3655C283.492 22.1187 283.437 21.899 283.327 21.7055L283.326 21.7021Z" fill="url(#paint7_linear_663_10508)"/>
<path d="M299.227 11.9448V23.6161H303.426V26.2306H291.648V23.6161H296.045V14.5719H291.648V11.9448H299.227ZM295.887 7.54136C295.975 7.32588 296.103 7.13829 296.27 6.98027C296.429 6.8307 296.62 6.71409 296.844 6.63043C297.069 6.54678 297.322 6.50537 297.603 6.50537C298.078 6.50537 298.464 6.62621 298.758 6.86873C299.053 7.11125 299.222 7.42137 299.267 7.79994C299.329 8.18696 299.263 8.52412 299.069 8.80974C298.876 9.0962 298.594 9.28717 298.224 9.38435C298.039 9.55166 297.82 9.66151 297.564 9.71475C297.309 9.76714 297.027 9.74602 296.719 9.64884C296.403 9.55251 296.163 9.37843 295.999 9.12746C295.836 8.87649 295.755 8.58412 295.755 8.24949C295.755 7.99429 295.799 7.75853 295.887 7.54305V7.54136Z" fill="url(#paint8_linear_663_10508)"/>
<path d="M312.949 11.9448H318.323V14.3083H312.949V21.1344C312.949 21.6625 313.013 22.1045 313.141 22.4611C313.269 22.8176 313.447 23.0974 313.676 23.2993C313.905 23.5106 314.178 23.6601 314.495 23.748C314.812 23.8359 315.159 23.8798 315.538 23.8798C315.811 23.8798 316.092 23.8663 316.383 23.8401C316.673 23.8139 316.955 23.7784 317.228 23.7345C317.491 23.699 317.741 23.6576 317.974 23.6094C318.207 23.5613 318.403 23.519 318.561 23.4844L318.904 25.6628C318.675 25.8039 318.401 25.9248 318.079 26.0262C317.758 26.1276 317.412 26.2129 317.042 26.2839C316.672 26.3541 316.287 26.409 315.887 26.4487C315.486 26.4884 315.088 26.5078 314.692 26.5078C313.97 26.5078 313.308 26.409 312.704 26.2104C312.101 26.0127 311.584 25.7017 311.153 25.2792C310.721 24.866 310.385 24.3328 310.143 23.6813C309.901 23.0297 309.78 22.2464 309.78 21.3313V14.3075H306.32V11.944H309.78V8.45825H312.949V11.944L312.949 11.9448Z" fill="url(#paint9_linear_663_10508)"/>
<path d="M324.298 31.9287C324.021 31.8805 323.755 31.8247 323.5 31.7639L323.936 29.2947C324.112 29.3032 324.312 29.3142 324.537 29.3277C324.762 29.3412 324.944 29.3471 325.084 29.3471C325.392 29.3471 325.67 29.2567 325.916 29.0767C326.163 28.8959 326.378 28.6914 326.563 28.4624C326.739 28.2334 326.882 28.0314 326.992 27.8548C327.102 27.6791 327.205 27.494 327.303 27.3005L328.2 25.5969L322.113 11.9448H325.585L329.137 20.6722L329.625 22.2431L330.22 20.7119L333.666 11.9448H337.165L329.916 28.3965C329.749 28.7666 329.54 29.1604 329.289 29.5778C329.038 29.9961 328.724 30.3806 328.345 30.733C327.967 31.0938 327.518 31.3955 326.998 31.6371C326.479 31.8788 325.872 32.0005 325.176 32.0005C324.868 32.0005 324.576 31.9768 324.298 31.9287Z" fill="url(#paint10_linear_663_10508)"/>
<path d="M347.423 4.06237V30.5216H341.785V28.0389H344.334V6.54419H341.785V4.06152L347.423 4.06237Z" fill="url(#paint11_linear_663_10508)"/>
</g>
<defs>
<linearGradient id="paint0_linear_663_10508" x1="163.406" y1="4.06152" x2="177.548" y2="72.5606" gradientUnits="userSpaceOnUse">
<stop offset="0.24238" stop-color="#36BEFF"/>
<stop offset="1" stop-color="#733FF1"/>
</linearGradient>
<linearGradient id="paint1_linear_663_10508" x1="163.406" y1="4.06152" x2="177.548" y2="72.5606" gradientUnits="userSpaceOnUse">
<stop offset="0.24238" stop-color="#36BEFF"/>
<stop offset="1" stop-color="#733FF1"/>
</linearGradient>
<linearGradient id="paint2_linear_663_10508" x1="163.406" y1="4.06152" x2="177.548" y2="72.5606" gradientUnits="userSpaceOnUse">
<stop offset="0.24238" stop-color="#36BEFF"/>
<stop offset="1" stop-color="#733FF1"/>
</linearGradient>
<linearGradient id="paint3_linear_663_10508" x1="163.406" y1="4.06152" x2="177.548" y2="72.5606" gradientUnits="userSpaceOnUse">
<stop offset="0.24238" stop-color="#36BEFF"/>
<stop offset="1" stop-color="#733FF1"/>
</linearGradient>
<linearGradient id="paint4_linear_663_10508" x1="163.406" y1="4.06152" x2="177.548" y2="72.5606" gradientUnits="userSpaceOnUse">
<stop offset="0.24238" stop-color="#36BEFF"/>
<stop offset="1" stop-color="#733FF1"/>
</linearGradient>
<linearGradient id="paint5_linear_663_10508" x1="163.406" y1="4.06152" x2="177.548" y2="72.5606" gradientUnits="userSpaceOnUse">
<stop offset="0.24238" stop-color="#36BEFF"/>
<stop offset="1" stop-color="#733FF1"/>
</linearGradient>
<linearGradient id="paint6_linear_663_10508" x1="163.406" y1="4.06152" x2="177.548" y2="72.5606" gradientUnits="userSpaceOnUse">
<stop offset="0.24238" stop-color="#36BEFF"/>
<stop offset="1" stop-color="#733FF1"/>
</linearGradient>
<linearGradient id="paint7_linear_663_10508" x1="163.406" y1="4.06152" x2="177.548" y2="72.5606" gradientUnits="userSpaceOnUse">
<stop offset="0.24238" stop-color="#36BEFF"/>
<stop offset="1" stop-color="#733FF1"/>
</linearGradient>
<linearGradient id="paint8_linear_663_10508" x1="163.406" y1="4.06152" x2="177.548" y2="72.5606" gradientUnits="userSpaceOnUse">
<stop offset="0.24238" stop-color="#36BEFF"/>
<stop offset="1" stop-color="#733FF1"/>
</linearGradient>
<linearGradient id="paint9_linear_663_10508" x1="163.406" y1="4.06152" x2="177.548" y2="72.5606" gradientUnits="userSpaceOnUse">
<stop offset="0.24238" stop-color="#36BEFF"/>
<stop offset="1" stop-color="#733FF1"/>
</linearGradient>
<linearGradient id="paint10_linear_663_10508" x1="163.406" y1="4.06152" x2="177.548" y2="72.5606" gradientUnits="userSpaceOnUse">
<stop offset="0.24238" stop-color="#36BEFF"/>
<stop offset="1" stop-color="#733FF1"/>
</linearGradient>
<linearGradient id="paint11_linear_663_10508" x1="163.406" y1="4.06152" x2="177.548" y2="72.5606" gradientUnits="userSpaceOnUse">
<stop offset="0.24238" stop-color="#36BEFF"/>
<stop offset="1" stop-color="#733FF1"/>
</linearGradient>
<clipPath id="clip0_663_10508">
<rect width="348" height="32" fill="white"/>
</clipPath>
</defs>
</svg>
