<svg width="20" height="20" viewBox="0 0 20 20" fill="none" xmlns="http://www.w3.org/2000/svg">
<path d="M13.3359 17.5V15.8333C13.3359 14.9493 12.9847 14.1014 12.3596 13.4763C11.7345 12.8512 10.8867 12.5 10.0026 12.5H4.16927C3.28522 12.5 2.43737 12.8512 1.81225 13.4763C1.18713 14.1014 0.835938 14.9493 0.835938 15.8333V17.5" stroke="#5578F8" stroke-width="1.25" stroke-linecap="round" stroke-linejoin="round"/>
<path d="M7.08333 9.16667C8.92428 9.16667 10.4167 7.67428 10.4167 5.83333C10.4167 3.99238 8.92428 2.5 7.08333 2.5C5.24238 2.5 3.75 3.99238 3.75 5.83333C3.75 7.67428 5.24238 9.16667 7.08333 9.16667Z" stroke="#5578F8" stroke-width="1.25" stroke-linecap="round" stroke-linejoin="round"/>
<path d="M14.1641 9.16667L15.8307 10.8333L19.1641 7.5" stroke="#5578F8" stroke-width="1.25" stroke-linecap="round" stroke-linejoin="round"/>
</svg>
