<svg width="20" height="20" viewBox="0 0 20 20" fill="none" xmlns="http://www.w3.org/2000/svg">
<path d="M9.9974 15.8337C13.2191 15.8337 15.8307 13.222 15.8307 10.0003C15.8307 6.77866 13.2191 4.16699 9.9974 4.16699C6.77573 4.16699 4.16406 6.77866 4.16406 10.0003C4.16406 13.222 6.77573 15.8337 9.9974 15.8337Z" stroke="#5578F8" stroke-width="1.25" stroke-linecap="round" stroke-linejoin="round"/>
<path d="M10 7.5V10L11.25 11.25" stroke="#5578F8" stroke-width="1.25" stroke-linecap="round" stroke-linejoin="round"/>
<path d="M13.7594 14.458L13.4677 17.6497C13.4302 18.0652 13.2381 18.4516 12.9295 18.7324C12.621 19.0132 12.2183 19.168 11.801 19.1664H8.19271C7.77548 19.168 7.3728 19.0132 7.06421 18.7324C6.75563 18.4516 6.56359 18.0652 6.52604 17.6497L6.23438 14.458M6.24271 5.54136L6.53438 2.34969C6.5718 1.93559 6.76265 1.55043 7.06947 1.26982C7.37629 0.989205 7.77692 0.833413 8.19271 0.833022H11.8177C12.2349 0.831329 12.6376 0.986187 12.9462 1.267C13.2548 1.54781 13.4468 1.93415 13.4844 2.34969L13.776 5.54136" stroke="#5578F8" stroke-width="1.25" stroke-linecap="round" stroke-linejoin="round"/>
</svg>
